# xmcd
#
# Track frame offsets:
#	150
#	19088
#	36063
#	55331
#	69946
#	86491
#	105772
#	120255
#	134663
#	156916
#	178767
#	193547
#
# Disc length: 2789 seconds
#
# Revision: 0
# Processed by: cddbd v1.5.2PL0 Copyright (c) Steve Scherf et al.
# Submitted via: EasyCDDAExtractor 16.0.6.1
#
DISCID=940ae30c
DTITLE=Ζαγρέας Τηλέμαχος - Ο θρύλλος-Ζαγρέας Τηλέμαχος
DYEAR=1996
DGENRE=Ρεμπέτικη
TTITLE0=Αητός [Adler]
TTITLE1=Αννίβας [Hannibal]
TTITLE2=Χουρχουλές [Kiffer]
TTITLE3=Αγριόμαγκας [Wilder Kerl]
TTITLE4=Αχιλλέας [Achilles]
TTITLE5=Μωϋσής [Moses]
TTITLE6=Μάτια τσακίρικα [Verspielte Augen]
TTITLE7=Πυρκαϊά [Feuersbrrunst]
TTITLE8=Ένοχος [Schuldig]
TTITLE9=Φυλακή Βερολίνου [Moabit]
TTITLE10=Αφροδίτη [Aphrodite]
TTITLE11=Θρύλλος [Legende]
EXTD=
EXTT0=
EXTT1=
EXTT2=
EXTT3=
EXTT4=
EXTT5=
EXTT6=
EXTT7=
EXTT8=
EXTT9=
EXTT10=
EXTT11=
PLAYORDER=
